{"title":"War Horse 2011 DVDScr XVID AC3 HQ Hive-CM8","uid":6942495,"size":2379601982,"categoryP":"video","categoryS":"movies","magnet":"?xt=urn:btih:59fb2fea647b23522e53e094929ff2cb9b8a8475&amp;dn=War+Horse+2011+DVDScr+XVID+AC3+HQ+Hive-CM8&amp;tr=udp%3A%2F%2Ftracker.openbittorrent.com%3A80&amp;tr=udp%3A%2F%2Fopen.demonii.com%3A1337&amp;tr=udp%3A%2F%2Ftracker.coppersurfer.tk%3A6969&amp;tr=udp%3A%2F%2Fexodus.desync.com%3A6969","seeders":0,"leechers":0,"uploader":"neon","files":-1,"time":1326101358,"description":"Plot:\nAfter his horse is sold to the British calvary during World War I, a young man enlists as a soldier in hopes of one day being reconnected with the animal he raised.\n\n\nCast:\nJeremy Irvine    ...    Albert Narracott\nPeter Mullan     ...    Ted Narracott\nEmily Watson     ...    Rose Narracott\nNiels Arestrup   ...    Grandfather\nDavid Thewlis    ...    Lyons\n &lt;a href=&quot;\nhttp://www.shotpix.com/images/39472559209724034504.png&quot; rel=&quot;nofollow&quot; target=&quot;_NEW&quot;&gt;\nhttp://www.shotpix.com/images/39472559209724034504.png&lt;/a&gt; &lt;a href=&quot;\nhttp://www.shotpix.com/images/21522783674484416106.png&quot; rel=&quot;nofollow&quot; target=&quot;_NEW&quot;&gt;\nhttp://www.shotpix.com/images/21522783674484416106.png&lt;/a&gt; &lt;a href=&quot;\nhttp://www.shotpix.com/images/35399843955577342358.png&quot; rel=&quot;nofollow&quot; target=&quot;_NEW&quot;&gt;\nhttp://www.shotpix.com/images/35399843955577342358.png&lt;/a&gt;\n &lt;a href=&quot;\nhttp://www.imdb.com/title/tt1568911/&quot; rel=&quot;nofollow&quot; target=&quot;_NEW&quot;&gt;\nhttp://www.imdb.com/title/tt1568911/&lt;/a&gt;\n\nGeneral\nComplete name                  : War.Horse.2011.DVDScr.XVID.AC3.HQ.Hive-CM8.avi\nFormat                         : AVI\nFormat/Info                    : Audio Video Interleave\nFormat profile                 : OpenDML\nFormat settings                : rec\nFile size                      : 2.20 GiB\nDuration                       : 2h 26mn\nOverall bit rate               : 2 149 Kbps\nWriting application            : AVI-Mux GUI 1.17.7, Aug  8 2006  20:59:17\n\nVideo\nID                             : 0\nFormat                         : MPEG-4 Visual\nFormat profile                 : Advanced Simple@L5\nFormat settings, BVOP          : 2\nFormat settings, QPel          : Yes\nFormat settings, GMC           : No warppoints\nFormat settings, Matrix        : Default (H.263)\nMuxing mode                    : Packed bitstream\nCodec ID                       : XVID\nCodec ID/Hint                  : XviD\nDuration                       : 2h 26mn\nBit rate                       : 1 696 Kbps\nWidth                          : 720 pixels\nHeight                         : 304 pixels\nDisplay aspect ratio           : 2.35:1\nFrame rate                     : 23.976 fps\nColor space                    : YUV\nChroma subsampling             : 4:2:0\nBit depth                      : 8 bits\nScan type                      : Progressive\nCompression mode               : Lossy\nBits/(Pixel*Frame)             : 0.323\nStream size                    : 1.74 GiB (79%)\nWriting library                : XviD 1.2.1 (UTC 2008-12-04)\n\nAudio\nID                             : 1\nFormat                         : AC-3\nFormat/Info                    : Audio Coding 3\nMode extension                 : CM (complete main)\nCodec ID                       : 2000\nDuration                       : 2h 26mn\nBit rate mode                  : Constant\nBit rate                       : 448 Kbps\nChannel(s)                     : 6 channels\nChannel positions              : Front: L C R, Side: L R, LFE\nSampling rate                  : 48.0 KHz\nBit depth                      : 16 bits\nCompression mode               : Lossy\nStream size                    : 470 MiB (21%)\nAlignment                      : Aligned on interleaves\nInterleave, duration           : 64 ms (1.53 video frames)\nInterleave, preload duration   : 192 ms\n\n","torrent":{"xt":"urn:btih:59fb2fea647b23522e53e094929ff2cb9b8a8475","amp;dn":"War+Horse+2011+DVDScr+XVID+AC3+HQ+Hive-CM8","amp;tr":["udp%3A%2F%2Ftracker.openbittorrent.com%3A80","udp%3A%2F%2Fopen.demonii.com%3A1337","udp%3A%2F%2Ftracker.coppersurfer.tk%3A6969","udp%3A%2F%2Fexodus.desync.com%3A6969"],"infoHash":"59fb2fea647b23522e53e094929ff2cb9b8a8475","infoHashBuffer":{"type":"Buffer","data":[89,251,47,234,100,123,35,82,46,83,224,148,146,159,242,203,155,138,132,117]},"announce":[],"urlList":[]}}